<?xml version="1.0" encoding="UTF-8"?><svg xmlns="http://www.w3.org/2000/svg" xmlns:xlink="http://www.w3.org/1999/xlink" height="827.5" preserveAspectRatio="xMidYMid meet" version="1.0" viewBox="18.9 9.0 974.2 827.5" width="974.2" zoomAndPan="magnify"><g id="change1_1"><path d="M901.3,9H110.7c-50.6,0-91.8,41.2-91.8,91.8v42.8v601.1c0,50.6,41.2,91.8,91.8,91.8h790.6c50.6,0,91.8-41.2,91.8-91.8V143.6 v-42.8C993.1,50.2,951.9,9,901.3,9z M93.6,100.8c0-9.3,7.8-17.1,17.1-17.1h790.6c9.3,0,17.1,7.8,17.1,17.1v11.9L514.8,516.3 c-4.8,4.8-12.8,4.8-17.6,0L93.6,112.7V100.8z M918.4,744.8c0,9.3-7.8,17.1-17.1,17.1H110.7c-9.3,0-17.1-7.8-17.1-17.1V218.3 l350.7,350.7c16.4,16.4,38.3,25.5,61.6,25.5c23.3,0,45.2-9,61.6-25.5l350.7-350.7V744.8z"/></g></svg>